<svg width="115" height="113" viewBox="0 0 115 113" fill="none" xmlns="http://www.w3.org/2000/svg">
<path d="M144 72.0001L124.509 52.509C123.963 51.9632 123.397 51.4447 122.815 50.9509C122.878 50.1932 122.912 49.4272 122.912 48.6534V21.0886H95.3469C94.57 21.0886 93.8009 21.1226 93.0403 21.1859C92.5494 20.6063 92.0379 20.0381 91.4913 19.4914L72.0001 0L52.509 19.4912C51.9632 20.0369 51.4447 20.6027 50.9507 21.1847C50.1929 21.122 49.4269 21.0883 48.6531 21.0883H21.0886V48.6531C21.0886 49.4269 21.1223 50.1929 21.185 50.9507C20.603 51.4444 20.0372 51.9629 19.4914 52.5087L0 72.0001L19.4912 91.4913C20.0369 92.0371 20.6027 92.5556 21.185 93.0496C21.122 93.8074 21.0886 94.5734 21.0886 95.3472V122.912H48.6534C49.4303 122.912 50.1993 122.878 50.9602 122.815C51.4512 123.395 51.9626 123.963 52.5093 124.509L72.0004 144L91.4916 124.509C92.0382 123.963 92.5494 123.395 93.0406 122.815C93.8015 122.878 94.5703 122.912 95.3472 122.912H122.912V95.3469C122.912 94.5731 122.878 93.8071 122.815 93.0491C123.397 92.5553 123.963 92.0368 124.509 91.491L144 72.0001ZM95.3469 67.7824H82.1827L91.4913 58.4738C95.1045 54.8608 99.908 52.8709 105.017 52.8709C107.99 52.8709 110.858 53.5488 113.449 54.8237C110.876 62.3519 103.736 67.7824 95.3469 67.7824ZM113.449 89.1763C110.858 90.4512 107.991 91.1291 105.018 91.1291C99.908 91.1291 95.1045 89.1392 91.4916 85.5263L82.183 76.2176H95.3472C103.736 76.2179 110.876 81.6482 113.449 89.1763ZM89.1676 113.446C81.6439 110.87 76.2179 103.733 76.2179 95.3469V82.1824L85.5265 91.491C91.4559 97.4207 92.6661 106.305 89.1676 113.446ZM54.8327 113.446C51.3342 106.305 52.5444 97.4206 58.4738 91.4913L67.7824 82.1827V95.3472C67.7824 103.733 62.3563 110.87 54.8327 113.446ZM48.6531 76.2179H61.8176L52.509 85.5265C48.8958 89.1395 44.092 91.1294 38.9826 91.1294C36.0096 91.1294 33.1427 90.4515 30.5513 89.1766C33.1247 81.6482 40.2642 76.2179 48.6531 76.2179ZM30.551 54.8237C33.1424 53.5488 36.0096 52.8709 38.9826 52.8709C44.092 52.8709 48.8958 54.8608 52.509 58.4738L61.8176 67.7824H48.6531C40.2642 67.7824 33.1244 62.3519 30.551 54.8237ZM52.8709 38.9826C52.8709 36.0096 53.5488 33.1427 54.8237 30.551C62.3519 33.1244 67.7821 40.264 67.7821 48.6531V61.8176L58.4735 52.509C54.8608 48.8958 52.8709 44.092 52.8709 38.9826ZM89.1676 30.5541C92.6661 37.6956 91.4559 46.5794 85.5265 52.509L76.2179 61.8176V48.6531C76.2179 40.2673 81.6439 33.13 89.1676 30.5541ZM114.476 29.5241V46.0952C111.485 45.0053 108.295 44.4353 105.017 44.4353C102.918 44.4353 100.855 44.6693 98.8575 45.1231C100.028 39.9631 99.7041 34.532 97.8829 29.5241H114.476ZM72.0001 11.9298L83.7303 23.6597C78.8965 25.9157 74.8213 29.5328 72.0001 34.016C69.1793 29.5325 65.1041 25.9154 60.2702 23.6597L72.0001 11.9298ZM29.5241 29.5241H46.0952C45.0053 32.5148 44.4356 35.7048 44.4356 38.9826C44.4356 41.0726 44.6673 43.1273 45.1172 45.1172C43.1273 44.667 41.0729 44.4353 38.9826 44.4353C35.7048 44.4353 32.5148 45.005 29.5241 46.0952V29.5241ZM11.9298 72.0001L23.6597 60.2702C25.9157 65.1041 29.5328 69.1793 34.016 72.0001C29.5325 74.821 25.9154 78.8962 23.6597 83.73L11.9298 72.0001ZM29.5241 114.476V97.9051C32.5148 98.995 35.7048 99.5647 38.9826 99.5647C41.0816 99.5647 43.1447 99.3307 45.1428 98.8769C43.9719 104.037 44.2961 109.468 46.1177 114.476H29.5241ZM72.0001 132.07L60.2702 120.34C65.1041 118.084 69.1793 114.467 72.0001 109.984C74.821 114.467 78.8962 118.084 83.7303 120.34L72.0001 132.07ZM114.476 114.476H97.8826C99.7039 109.468 100.028 104.037 98.8575 98.8769C100.855 99.3307 102.918 99.5647 105.017 99.5647C108.295 99.5647 111.485 98.995 114.476 97.9049V114.476ZM109.984 72.0001C114.467 69.1793 118.085 65.1041 120.341 60.2702L132.07 72.0001L120.341 83.73C118.085 78.8962 114.467 74.821 109.984 72.0001Z" fill="white"/>
</svg>
