<svg width="100" height="90" viewBox="0 0 100 90" fill="none" xmlns="http://www.w3.org/2000/svg">
<path d="M82.7143 9.11835C80.7224 8.50546 74.8526 6.69922 57.5058 1.3613L56.5 1.05187L30.286 9.11857C28.2942 8.50568 22.4246 6.69966 5.07729 1.36152L0.652191 0V113L30.2856 105.26L56.5 112.107L82.7143 105.26L112.348 113V0L82.7143 9.11835ZM105.509 104.146L86.1336 99.0851V93.9359H79.2951V99.0851L59.9194 104.146V75.0739H53.0809V104.146L33.7051 99.0851V74.6718H26.8667V99.0851L7.4909 104.146V9.25916C13.0705 10.976 22.4647 13.8668 26.8667 15.2215V16.8928H33.7051V15.2215L53.0809 9.25938V57.3972H59.9194V9.25938C65.499 10.9762 74.893 13.8668 79.2951 15.2215V37.1115H86.1336V15.2215L105.509 9.25916V104.146Z" fill="white"/>
<path d="M30.4158 19.2137C24.5036 19.2137 19.694 23.9953 19.694 29.8722C19.694 34.5608 22.7567 38.5491 26.9966 39.9717V50.7454H33.8351V39.9717C38.0753 38.5493 41.138 34.561 41.138 29.8722C41.1377 23.9951 36.328 19.2137 30.4158 19.2137ZM30.4158 33.6921C28.2745 33.6921 26.5325 31.9783 26.5325 29.8722C26.5325 27.766 28.2745 26.0522 30.4158 26.0522C32.5572 26.0522 34.2992 27.766 34.2992 29.8722C34.2992 31.9783 32.5572 33.6921 30.4158 33.6921Z" fill="white"/>
<path d="M82.7142 39.8406C75.7945 39.8406 70.1648 45.4346 70.1648 52.3104C70.1648 58.0083 74.0322 62.8222 79.2949 64.3056V78.4056H86.1334V64.3056C91.3958 62.8222 95.2634 58.0083 95.2634 52.3104C95.2636 45.4346 89.6342 39.8406 82.7142 39.8406ZM82.7142 57.9416C79.565 57.9416 77.0033 55.4154 77.0033 52.3106C77.0033 49.2055 79.565 46.6793 82.7142 46.6793C85.8632 46.6793 88.4251 49.2055 88.4251 52.3106C88.4251 55.4154 85.8634 57.9416 82.7142 57.9416Z" fill="white"/>
<path d="M33.7047 55.7474H26.8662V59.1667H33.7047V55.7474Z" fill="white"/>
<path d="M33.7047 64.2955H26.8662V71.134H33.7047V64.2955Z" fill="white"/>
<path d="M62.6364 64.2955H55.4033V71.134H62.6364V64.2955Z" fill="white"/>
<path d="M52.9941 64.2955H45.761V71.134H52.9941V64.2955Z" fill="white"/>
<path d="M43.3496 64.2955H36.1165V71.134H43.3496V64.2955Z" fill="white"/>
<path d="M71.8863 64.2955H65.0479V71.134H71.8863V64.2955Z" fill="white"/>
<path d="M71.8863 73.3906H65.0479V80.1618H71.8863V73.3906Z" fill="white"/>
<path d="M71.8863 82.4176H65.0479V89.2561H71.8863V82.4176Z" fill="white"/>
<path d="M77.8131 82.4176H73.3681V89.2561H77.8131V82.4176Z" fill="white"/>
<path d="M82.714 82.4176H79.2947V89.2561H82.714V82.4176Z" fill="white"/>
</svg>
