<svg width="122" height="112" viewBox="0 0 122 112" fill="none" xmlns="http://www.w3.org/2000/svg">
<path d="M71.5099 126.928V120.649H117.649L105.183 31.7959L67.4997 0.0516663L29.8165 31.7959L17.3512 120.649H63.4898V126.928H0V134.948H135V126.928H71.5099ZM71.5099 13.9163L97.6675 35.9514L99.8697 51.6475L71.5102 27.7575V13.9163H71.5099ZM71.5099 38.2443L101.538 63.5399L103.74 79.236L71.5099 52.0857V38.2443ZM71.5099 62.5722L105.408 91.1284L107.611 106.825L71.5099 76.4134V62.5722ZM71.5099 86.8999L102.052 112.628H71.5099V86.8999ZM37.3322 35.9514L63.4898 13.9166V27.7578L35.1303 51.6477L37.3322 35.9514ZM63.4898 112.629H32.9476L63.4898 86.9001V112.629ZM63.4898 76.4131L27.3892 106.824L29.5914 91.1278L63.4898 62.5719V76.4131ZM63.4901 52.0852L31.2596 79.236L33.4621 63.5396L63.4901 38.244V52.0852Z" fill="white"/>
</svg>
